<?xml version="1.0" encoding="utf-8"?>
<!-- Generator: Adobe Illustrator 26.3.1, SVG Export Plug-In . SVG Version: 6.00 Build 0)  -->
<svg version="1.1" id="Слой_1" xmlns="http://www.w3.org/2000/svg" xmlns:xlink="http://www.w3.org/1999/xlink" x="0px" y="0px"
	 viewBox="0 0 878.5 718.7" style="enable-background:new 0 0 878.5 718.7;" xml:space="preserve">
<style type="text/css">
	.st0{fill:#9B1827;}
</style>
<g>
	<g>
		<path class="st0" d="M641.1,165.8l-49.6,41.9v95.6L576,316.3v82.9l-13.6,11.5v58.5l-19.3,6v-69.7h-34.5l-38.3-20l-38.3,20h-34.5
			v115.4l-22.4,7v-64.7l-16.2,3.2V398l-18.1,2.6l-23.4-130.7l12.9,9.8l-5.6-17.9l14.6-11.1h-18.1l-5.6-17.9l-5.6,17.9h-18.1
			l14.6,11.1l-5.6,17.9l12.6-9.5l-23.4,130.3l-17.1-2.5v68.7l-16.8-3.4v102.2l-10,3.3c-14.8-10.8-24.5-27.8-24.5-47.1V65h325.9V16.7
			h-371v504.9c0,59.4,47.4,107.3,106,107.3h49.7c63.5,0,98.7,45.8,98.7,45.8s35.2-45.8,98.7-45.8h49.7
			c58.5,0,105.9-48.3,105.9-107.3V165.8H641.1z M579.9,580.6h-49.7c-34.4,0-68.1,10.3-97.1,30.1l-1.5,1.2l-1.5-1.2
			c-29.1-19.8-62.8-30.2-97.2-30.1h-41v-72.8l16.8,3.4v-70.5l7-0.5l8,0.6V511l16.2-3.2v70.4l93.1-29.2V442.5h7.5l30-15.6l29.9,15.6
			h7.5v83.1l89.9-28.2v-61.2l25.6-21.6v-55.3l-12,10.1v-26.8l24.8-21v-56.1l-9.3,7.8v-29.1l13.8-11.7v289h0.4
			C641.1,554.2,613.6,580.6,579.9,580.6"/>
		<polygon class="st0" points="570,16.7 570,65 609.4,65 431.5,215.3 315.2,117.5 244.1,177.3 244.1,238.8 315.2,179 431.5,276.8 
			641.1,99.7 641.1,141.8 685.9,141.8 685.9,16.7 		"/>
	</g>
</g>
</svg>
